<svg xmlns="http://www.w3.org/2000/svg" viewBox="0 0 92.86 89.99"><defs><style>.cls-1{isolation:isolate;}.cls-2,.cls-4,.cls-7,.cls-8{mix-blend-mode:multiply;}.cls-3,.cls-4{fill:#4b49ac;}.cls-4,.cls-7,.cls-8{opacity:0.3;}.cls-5{fill:#bfd4ff;}.cls-6{fill:#6d48da;}.cls-7{fill:#606060;}.cls-8{fill:#369;}.cls-9{fill:#b4d8ff;}</style></defs><g class="cls-1"><g id="Layer_1" data-name="Layer 1"><g class="cls-2"><path class="cls-3" d="M86.86,90.41c16.13-5.49,19.09-27,11.8-40.52-8.11-15-24.53-24.51-39.58-31.25-3-1.33-29.24-10.73-26.88-4.39,1.86,5,3.25,10.17,5.06,15.19,2.64,7.28,5.25,14.53,7.61,21.9a153.29,153.29,0,0,0,6.42,17.25C55.78,78.35,62.61,88,73.58,90.81A23.81,23.81,0,0,0,86.86,90.41Z" transform="translate(-10.48 -11.18)"/><path class="cls-3" d="M31.16,13.82h0a2,2,0,0,1,.82-2c4.29-3.15,27.25,5.86,27.47,6,13,5.81,31.22,15.41,40,31.65a33.11,33.11,0,0,1,3.62,11.73c1.41,11.8-3,25.67-15.93,30.08a24.66,24.66,0,0,1-13.8.43c-9.47-2.42-17-9.86-22.89-22.73A155.36,155.36,0,0,1,44,51.62C41.55,44,38.7,36.08,36.41,29.75c-.87-2.4-1.65-4.86-2.4-7.24-.83-2.62-1.69-5.33-2.66-7.94A3.3,3.3,0,0,1,31.16,13.82ZM101.27,61.4a31.15,31.15,0,0,0-3.42-11.08C89.33,34.57,71.43,25.17,58.71,19.47c-4.42-2-23.06-8-25.65-6.15-.07,0-.12.09-.1.28h0a2.77,2.77,0,0,0,.09.33c1,2.65,1.85,5.39,2.69,8,.75,2.36,1.52,4.81,2.38,7.17,2.29,6.34,5.15,14.24,7.62,21.93a154,154,0,0,0,6.37,17.15C57.8,80.55,64.89,87.66,73.8,89.93a22.91,22.91,0,0,0,12.76-.39C98.56,85.47,102.59,72.47,101.27,61.4Z" transform="translate(-10.48 -11.18)"/><path class="cls-4" d="M86.86,90.41c16.13-5.49,19.09-27,11.8-40.52-5-9.28-13.25-16.47-22.35-22.2a125.64,125.64,0,0,1,10.11,8.36c3.34,3.09,12.5,10.65,9.64,16.3-5.34,10.58-20-3.3-24-8.25C61.39,31,51.09,14.7,33.72,12.16c-1.34.22-2,.85-1.52,2.09,1.86,5,3.25,10.17,5.06,15.19,2.64,7.28,5.25,14.53,7.61,21.9a153.29,153.29,0,0,0,6.42,17.25C55.78,78.35,62.61,88,73.58,90.81A23.81,23.81,0,0,0,86.86,90.41Z" transform="translate(-10.48 -11.18)"/><path class="cls-4" d="M86.86,90.41c11.2-3.81,16-15.36,15.52-26.57-2.82,9.44-11.11,16.34-21.84,14.65C66.75,76.31,59,57.83,54,47,49.22,36.67,45.69,22.5,36.12,15.55a38.34,38.34,0,0,0-3.93-2.47,1.47,1.47,0,0,0,0,1.17c1.86,5,3.25,10.17,5.06,15.19,2.64,7.28,5.25,14.53,7.61,21.9a153.29,153.29,0,0,0,6.42,17.25C55.78,78.35,62.61,88,73.58,90.81A23.81,23.81,0,0,0,86.86,90.41Z" transform="translate(-10.48 -11.18)"/><path class="cls-5" d="M90.4,41.23c-8-8.76-19.83-15.6-30.94-19.41-.38-.13-.67.44-.31.64,5.24,3,10.33,6,15.31,9.37s9.66,7.53,14.91,10.58C90.11,42.85,91,41.92,90.4,41.23Z" transform="translate(-10.48 -11.18)"/><path class="cls-5" d="M94.06,45.73a5,5,0,0,0-1.38-1.47.67.67,0,0,0-1,.85A4.93,4.93,0,0,0,93,46.7C93.53,47.18,94.44,46.36,94.06,45.73Z" transform="translate(-10.48 -11.18)"/></g><path class="cls-6" d="M86.94,68.63c-9.48-13.56-27.1-17.43-42.49-19.5A185.07,185.07,0,0,0,21.79,48c-3.16,0-12.12-.49-10.12,4s16.58,29.47,23.5,36.09a40,40,0,0,0,8.4,6.28c10.32,5.64,24.67,8.37,35.64,3,5.72-2.81,10.34-8.27,11.28-14.67A19.13,19.13,0,0,0,86.94,68.63Z" transform="translate(-10.48 -11.18)"/><path class="cls-6" d="M63,101.08h0a49.54,49.54,0,0,1-19.85-5.91,40.37,40.37,0,0,1-8.58-6.42c-7.13-6.81-21.72-31.87-23.71-36.38a3.07,3.07,0,0,1,.08-3.08c1.46-2.2,6-2.32,10.14-2.26h.74c4.38,0,10.12.1,15.57.48,2.63.18,5,.41,7.2.71,16,2.14,33.54,6.18,43.11,19.88a20,20,0,0,1,3.71,14.72C90.46,89.18,86,95.06,79.61,98.18A32.32,32.32,0,0,1,63,101.08ZM37.25,49.33c-5.41-.37-11.1-.45-15.46-.47H21c-2.26,0-7.56-.11-8.59,1.44-.08.12-.32.48.07,1.35C14.41,56,29,80.92,35.8,87.43A38.85,38.85,0,0,0,44,93.57a47.64,47.64,0,0,0,19.1,5.7,30.5,30.5,0,0,0,15.71-2.73c5.81-2.85,9.93-8.21,10.78-14a18.26,18.26,0,0,0-3.4-13.41C77,56,59.89,52.12,44.33,50,42.16,49.74,39.84,49.51,37.25,49.33Z" transform="translate(-10.48 -11.18)"/><path class="cls-4" d="M86.94,68.63a35,35,0,0,0-8.28-8.32c3.35,4.84,2.83,14.45-4.62,15-11.25.81-19.59-8.06-28.48-13.53-6-3.67-12.38-7.42-19.12-9.46-5.2-1.57-9.89-1-14.95-.82a4,4,0,0,0,.18.52c2.05,4.64,16.58,29.47,23.5,36.09a40,40,0,0,0,8.4,6.28c10.32,5.64,24.67,8.37,35.64,3,5.72-2.81,10.34-8.27,11.28-14.67A19.13,19.13,0,0,0,86.94,68.63Z" transform="translate(-10.48 -11.18)"/><path class="cls-7" d="M86.94,68.63c-.32-.45-.65-.87-1-1.29,1.2,1.55,1.48,5.06,1.63,7a12.68,12.68,0,0,1-1.14,6.87C82.34,88.9,68.77,87,62,85c-9.59-2.76-18-8.93-24.3-16.59-3.27-4-6.52-8.08-10.76-11.08-4.49-3.18-9.91-4.76-15.31-5.48a.65.65,0,0,0,0,.13c2.05,4.64,16.58,29.47,23.5,36.09a40,40,0,0,0,8.4,6.28c10.32,5.64,24.67,8.37,35.64,3,5.72-2.81,10.34-8.27,11.28-14.67A19.13,19.13,0,0,0,86.94,68.63Z" transform="translate(-10.48 -11.18)"/><path class="cls-8" d="M89.7,83C84.31,91,73.52,94.85,64,94.16c-12.45-.91-21.77-7.27-30.32-15.91-4.57-4.62-8.95-9.43-13.07-14.47-3.1-3.79-5.71-8-8.92-11.66,2.21,4.9,16.57,29.4,23.44,36a40,40,0,0,0,8.4,6.28c10.32,5.64,24.67,8.37,35.64,3,5.72-2.81,10.34-8.27,11.28-14.67.06-.42.08-.83.12-1.25A17.11,17.11,0,0,1,89.7,83Z" transform="translate(-10.48 -11.18)"/><path class="cls-9" d="M71.67,59.3c-3.77-4.18-9.58-6.14-14.86-7.58-3.09-.84-6-2-9.21-2.38a67,67,0,0,0-13.28.11.31.31,0,0,0,0,.62c13.25,1,25,3.65,36.48,10.39C71.55,60.89,72.2,59.89,71.67,59.3Z" transform="translate(-10.48 -11.18)"/><path class="cls-9" d="M75.84,64.08c-.33-.55-1.21,0-.86.51s.64,1,.94,1.46a.35.35,0,0,0,.64-.27A4.42,4.42,0,0,0,75.84,64.08Z" transform="translate(-10.48 -11.18)"/></g></g></svg>